# xmcd
#
# Track frame offsets:
#	150
#	13600
#	41136
#	66534
#	95865
#	118663
#	139941
#
# Disc length: 2126 seconds
#
# Revision: 4
# Processed by: cddbd v1.5.1PL0 Copyright (c) Steve Scherf et al.
# Submitted via: EasyCDDAExtractor 5.0.6
#
DISCID=6a084c07
DTITLE=Soulwax - E Talking
DYEAR=2005
DGENRE=Electronic
TTITLE0=E Talking Radio Edit)
TTITLE1=E Talking (Soulwax Nite Version Feat. Nancy Whang)
TTITLE2=E Talking (Tiga's Disc Drama Remix)
TTITLE3=E Talking (Rex The Dog Remix)
TTITLE4=E Talking (Jagz Kooner Black September Vocal Mix)
TTITLE5=Teachers (Pupil Mix)
TTITLE6=video
EXTD=
EXTT0=
EXTT1=
EXTT2=
EXTT3=
EXTT4=
EXTT5=
EXTT6=
PLAYORDER=
